<svg width="15" height="14" viewBox="0 0 15 14" fill="none" xmlns="http://www.w3.org/2000/svg">
<path d="M11.7971 12.6667H12.2971V12.1667V5.25575L12.8804 4.61557V12.1667C12.8804 12.454 12.7663 12.7295 12.5631 12.9327C12.3599 13.1359 12.0844 13.25 11.7971 13.25H2.29708C2.00976 13.25 1.73421 13.1359 1.53105 12.9327C1.32788 12.7295 1.21375 12.454 1.21375 12.1667V2.66667C1.21375 2.37935 1.32788 2.1038 1.53105 1.90064C1.73421 1.69747 2.00976 1.58334 2.29708 1.58334H11.7971C11.8183 1.58334 11.8394 1.58396 11.8604 1.58519L11.3359 2.16667H2.29708H1.79708V2.66667V12.1667V12.6667H2.29708H11.7971ZM12.2971 3.77103V2.66667V2.59408L12.7294 2.11488C12.8274 2.28056 12.8804 2.47088 12.8804 2.66667V3.13086L12.2971 3.77103ZM14.3666 1.49987L13.8061 2.11502C13.7301 1.8384 13.5975 1.57916 13.4153 1.3545L13.9053 0.811241L14.3666 1.49987ZM4.30758 7.98886L5.57728 9.25856L5.9495 9.63078L6.30209 9.23991L11.2971 3.70265V4.86848L5.89324 10.7989L3.67575 8.8355L4.30758 7.98886Z" fill="black" stroke="black"/>
</svg>
