<svg width="18" height="18" viewBox="0 0 18 18" fill="none" xmlns="http://www.w3.org/2000/svg">
<path d="M8.58579 13.6569C9.17504 13.0676 9.46967 12.3605 9.46967 11.5355C9.46967 10.7106 9.17504 10.0035 8.58579 9.41421C7.99653 8.82495 7.28943 8.53033 6.46447 8.53033C5.63951 8.53033 4.9324 8.82495 4.34315 9.41421C3.75389 10.0035 3.45926 10.7106 3.45926 11.5355C3.45926 12.3605 3.75389 13.0676 4.34315 13.6569C4.9324 14.2461 5.63951 14.5407 6.46447 14.5407C7.28943 14.5407 7.99653 14.2461 8.58579 13.6569ZM10.7071 15.7782C9.5286 16.9567 8.11438 17.5459 6.46447 17.5459C4.81455 17.5459 3.40034 16.9567 2.22183 15.7782C1.04332 14.5997 0.454061 13.1854 0.454061 11.5355C0.454061 9.88561 1.04332 8.4714 2.22183 7.29289C3.17642 6.3383 4.28139 5.77544 5.53674 5.60432C6.79209 5.4332 7.96165 5.60715 9.04541 6.12616L14.6669 0.504664C14.7612 0.410383 14.8703 0.336608 14.9943 0.283339C15.1183 0.23007 15.239 0.203673 15.3563 0.204144H16.7352C16.8766 0.204144 17.0091 0.230542 17.1326 0.28334C17.2561 0.336138 17.3652 0.409912 17.46 0.504664C17.5543 0.598945 17.628 0.701947 17.6813 0.81367C17.7346 0.925394 17.761 1.0522 17.7605 1.19409L17.7605 4.87105C17.7605 5.01247 17.7369 5.14211 17.6898 5.25996C17.6426 5.37781 17.5719 5.48387 17.4777 5.57816C17.3834 5.67244 17.2801 5.74598 17.1679 5.79877C17.0557 5.85157 16.9292 5.87821 16.7882 5.87868L14.9497 5.87868V7.71715C14.9497 7.85858 14.9231 7.98515 14.8698 8.09687C14.8166 8.20859 14.743 8.31183 14.6492 8.40658C14.5549 8.50086 14.4517 8.5744 14.3395 8.6272C14.2273 8.68 14.1008 8.70663 13.9598 8.7071H12.1213L11.8738 8.95459C12.4277 10.0977 12.5986 11.2939 12.3865 12.5432C12.1744 13.7924 11.6146 14.8707 10.7071 15.7782Z" fill="black"/>
</svg>
