<svg width="370" height="100" viewBox="0 0 370 100" fill="none" xmlns="http://www.w3.org/2000/svg">
<path d="M37.8824 0.5H349.004C359.774 0.5 368.504 9.23045 368.504 20V80C368.504 90.7696 359.774 99.5 349.004 99.5H37.9716C31.6382 99.5 26.504 94.3658 26.504 88.0325C26.504 81.4992 21.2135 76.8176 15.4954 74.1862C13.461 73.25 11.5711 71.959 9.47159 70.141C8.73036 69.4992 8.05687 68.7728 7.45326 67.9914C4.8618 64.6369 3.25051 61.9861 2.22276 59.1375C1.19523 56.2894 0.739255 53.2113 0.503867 48.9829C0.454111 45.0127 0.879609 42.0685 2.06703 39.3383C3.25735 36.6014 5.23159 34.0371 8.35402 30.8572C11.2587 28.1192 13.7637 26.3718 16.8065 25.1788C22.4853 22.9521 27.3101 18.1261 27.031 11.8445C26.7562 5.66227 31.6941 0.5 37.8824 0.5Z" fill="white" stroke="black"/>
</svg>
