<svg width="24" height="24" viewBox="0 0 24 24" fill="none" xmlns="http://www.w3.org/2000/svg">
<path d="M8.84791 12C7.99791 12 7.28958 11.6812 6.72291 11.0437C6.15624 10.4062 5.93194 9.6625 6.04999 8.8125L6.51041 5.34167C6.6993 3.99583 7.31319 2.87997 8.35208 1.99408C9.39096 1.10819 10.6069 0.665722 12 0.666667C13.393 0.666667 14.609 1.10961 15.6479 1.9955C16.6868 2.88139 17.3007 3.99678 17.4896 5.34167L17.95 8.8125C18.068 9.6625 17.8437 10.4062 17.2771 11.0437C16.7104 11.6812 16.0021 12 15.1521 12H8.84791ZM3.49999 23.3333C2.72083 23.3333 2.05358 23.0557 1.49824 22.5003C0.942909 21.945 0.665714 21.2782 0.666659 20.5V19.3667C0.666659 18.5639 0.873493 17.8258 1.28716 17.1524C1.70083 16.479 2.24955 15.9657 2.93333 15.6125C4.39721 14.8806 5.88471 14.3314 7.39583 13.9649C8.90694 13.5985 10.4417 13.4157 12 13.4167C13.5583 13.4167 15.093 13.5999 16.6042 13.9663C18.1153 14.3328 19.6028 14.8815 21.0667 15.6125C21.7514 15.9667 22.3006 16.4804 22.7142 17.1538C23.1279 17.8272 23.3343 18.5648 23.3333 19.3667V20.5C23.3333 21.2792 23.0557 21.9464 22.5003 22.5018C21.945 23.0571 21.2782 23.3343 20.5 23.3333H3.49999Z" fill="black"/>
</svg>
